# Blender v2.81 (sub 16) OBJ File: 'Disc_00.blend'
# www.blender.org
mtllib Disc_00.mtl
o Cylinder
v -1.900000 0.000000 3.843583
v -1.900000 -0.000000 -3.843583
v -1.537132 -1.116792 3.843583
v -1.537132 -1.116792 -3.843583
v -0.587132 -1.807007 3.843583
v -0.587132 -1.807008 -3.843583
v 0.587133 -1.807007 3.843583
v 0.587132 -1.807007 -3.843583
v 1.537133 -1.116792 3.843583
v 1.537132 -1.116792 -3.843583
v 1.900000 0.000000 3.843583
v 1.900000 -0.000000 -3.843583
v 1.537132 1.116792 3.843583
v 1.537132 1.116792 -3.843583
v 0.587133 1.807007 3.843583
v 0.587132 1.807007 -3.843583
v -0.587132 1.807007 3.843583
v -0.587133 1.807007 -3.843583
v -1.537133 1.116791 3.843583
v -1.537133 1.116791 -3.843583
v -1.900000 0.000000 3.071966
v -1.900000 0.000000 2.293249
v -1.537132 -1.116792 2.293250
v -1.537132 -1.116792 3.071966
v -0.587132 -1.807007 2.293250
v -0.587132 -1.807007 3.071966
v 0.587132 -1.807007 2.293250
v 0.587132 -1.807007 3.071966
v 1.537133 -1.116792 2.293250
v 1.537133 -1.116792 3.071966
v 1.900000 0.000000 2.293250
v 1.900000 0.000000 3.071966
v 1.537132 1.116792 2.293250
v 1.537132 1.116792 3.071966
v 0.587133 1.807007 2.293250
v 0.587133 1.807007 3.071966
v -0.587132 1.807007 2.293250
v -0.587132 1.807007 3.071966
v -1.537133 1.116791 2.293250
v -1.537133 1.116791 3.071966
v -1.900000 -0.000000 -2.351635
v -1.900000 -0.000000 -3.127969
v -1.537132 -1.116792 -3.127969
v -1.537132 -1.116792 -2.351635
v -0.587132 -1.807008 -3.127969
v -0.587132 -1.807008 -2.351635
v 0.587132 -1.807007 -3.127969
v 0.587132 -1.807007 -2.351635
v 1.537132 -1.116792 -3.127969
v 1.537132 -1.116792 -2.351635
v 1.900000 0.000000 -3.127969
v 1.900000 0.000000 -2.351635
v 1.537132 1.116792 -3.127969
v 1.537132 1.116792 -2.351635
v 0.587132 1.807007 -3.127969
v 0.587132 1.807007 -2.351635
v -0.587133 1.807007 -3.127969
v -0.587133 1.807007 -2.351635
v -1.537133 1.116791 -3.127969
v -1.537133 1.116791 -2.351635
v -1.537132 -1.116792 -0.622704
v -0.587132 -1.807007 -0.622704
v 0.587132 -1.807007 -0.622704
v 1.537132 -1.116792 -0.622704
v 1.900000 0.000000 -0.622704
v 1.537132 1.116792 -0.622704
v 0.587132 1.807007 -0.622704
v -0.587133 1.807007 -0.622704
v -1.537133 1.116791 -0.622704
v -1.900000 -0.000000 -0.622704
v -1.537132 -1.116792 0.309601
v -0.587132 -1.807007 0.309601
v 0.587132 -1.807007 0.309601
v 1.537132 -1.116792 0.309601
v 1.900000 0.000000 0.309601
v 1.537132 1.116792 0.309601
v 0.587132 1.807007 0.309601
v -0.587133 1.807007 0.309601
v -1.537133 1.116791 0.309601
v -1.900000 0.000000 0.309601
v 0.198240 4.125640 2.551144
v 0.198240 4.125640 2.814071
v -0.198240 4.125640 2.551144
v -0.198240 4.125640 2.814071
v 2.292320 -3.445213 -0.291935
v 2.568227 -3.244755 -0.291935
v 2.292320 -3.445213 -0.021168
v 2.568227 -3.244755 -0.021168
v -3.892795 1.058968 -2.610353
v -3.892795 1.058968 -2.869250
v -3.771784 1.431403 -2.869251
v -3.771784 1.431403 -2.610353
vt 1.000000 0.968224
vt 1.000000 1.000000
vt 0.900000 1.000000
vt 0.900000 0.968224
vt 0.800000 1.000000
vt 0.800000 0.968224
vt 0.700000 1.000000
vt 0.700000 0.968224
vt 0.600000 1.000000
vt 0.600000 0.968224
vt 0.500000 1.000000
vt 0.500000 0.968224
vt 0.400000 1.000000
vt 0.400000 0.968224
vt 0.300000 1.000000
vt 0.300000 0.968224
vt 0.200000 1.000000
vt 0.200000 0.968224
vt 0.391068 0.444164
vt 0.250000 0.490000
vt 0.108932 0.444164
vt 0.021746 0.324164
vt 0.021746 0.175836
vt 0.108932 0.055836
vt 0.250000 0.010000
vt 0.391068 0.055836
vt 0.478254 0.175836
vt 0.478254 0.324164
vt 0.100000 1.000000
vt 0.100000 0.968224
vt -0.000000 1.000000
vt -0.000000 0.968224
vt 0.750000 0.490000
vt 0.891068 0.444164
vt 0.978254 0.324164
vt 0.978254 0.175836
vt 0.891068 0.055836
vt 0.750000 0.010000
vt 0.608932 0.055836
vt 0.521746 0.175836
vt 0.521746 0.324164
vt 0.608932 0.444164
vt 0.100000 0.500000
vt 0.100000 0.538399
vt -0.000000 0.538399
vt -0.000000 0.500000
vt 0.100000 0.585419
vt -0.000000 0.585419
vt 0.200000 0.500000
vt 0.200000 0.538399
vt 0.200000 0.585419
vt 0.300000 0.500000
vt 0.300000 0.538399
vt 0.300000 0.585419
vt 0.200000 0.585419
vt 0.300000 0.585419
vt 0.400000 0.500000
vt 0.400000 0.538399
vt 0.400000 0.585419
vt 0.500000 0.500000
vt 0.500000 0.538399
vt 0.500000 0.585419
vt 0.600000 0.500000
vt 0.600000 0.538399
vt 0.600000 0.585419
vt 0.700000 0.500000
vt 0.700000 0.538399
vt 0.700000 0.585419
vt 0.800000 0.500000
vt 0.800000 0.538399
vt 0.800000 0.585419
vt 0.900000 0.500000
vt 0.900000 0.538399
vt 0.900000 0.585419
vt 1.000000 0.500000
vt 1.000000 0.538399
vt 1.000000 0.585419
vt 0.100000 0.799695
vt 0.100000 0.926744
vt -0.000000 0.926744
vt -0.000000 0.799695
vt 1.000000 0.926744
vt 1.000000 0.926744
vt 1.000000 0.968224
vt 0.200000 0.799695
vt 0.200000 0.926744
vt 0.300000 0.799695
vt 0.300000 0.926744
vt 0.400000 0.799695
vt 0.400000 0.926744
vt 0.500000 0.799695
vt 0.500000 0.926744
vt 0.600000 0.799695
vt 0.600000 0.926744
vt 0.700000 0.799695
vt 0.700000 0.926744
vt 0.800000 0.799695
vt 0.800000 0.926744
vt 0.900000 0.799695
vt 0.900000 0.926744
vt 1.000000 0.799695
vt 1.000000 0.731185
vt 0.900000 0.731185
vt 0.800000 0.731185
vt 0.700000 0.731185
vt 0.700000 0.799695
vt 0.700000 0.731185
vt 0.600000 0.731185
vt 0.500000 0.731185
vt 0.400000 0.731186
vt 0.300000 0.731185
vt 0.200000 0.731185
vt 0.100000 0.731185
vt -0.000000 0.731185
vt 0.300000 0.538399
vt 0.200000 0.538399
vt 0.600000 0.799695
vt 0.600000 0.731185
vt 0.100000 0.926744
vt 0.100000 0.968224
vt -0.000000 0.968224
vt -0.000000 0.926744
vn -0.9511 -0.3090 0.0000
vn -0.5878 -0.8090 0.0000
vn 0.0000 -1.0000 0.0000
vn 0.5878 -0.8090 0.0000
vn 0.9511 -0.3090 0.0000
vn 0.9511 0.3090 0.0000
vn 0.5878 0.8090 0.0000
vn 0.0000 1.0000 -0.0000
vn 0.0000 0.0000 -1.0000
vn -0.5878 0.8090 0.0000
vn -0.9511 0.3090 0.0000
vn 0.0000 0.0000 1.0000
vn 0.0000 0.1105 -0.9939
vn -0.4693 -0.8831 0.0000
vn -0.6928 -0.7211 0.0000
vn -0.9862 0.1654 0.0000
vn 0.9862 0.1654 -0.0000
vn 0.0000 0.1105 0.9939
vn 0.0827 -0.1138 0.9901
vn 0.8999 0.4361 0.0000
vn 0.0827 -0.1138 -0.9901
vn -0.1100 0.0357 -0.9933
vn 0.1394 0.9902 0.0000
vn -0.1100 0.0357 0.9933
usemtl None
s off
f 42/1/1 2/2/1 4/3/1 43/4/1
f 43/4/2 4/3/2 6/5/2 45/6/2
f 45/6/3 6/5/3 8/7/3 47/8/3
f 47/8/4 8/7/4 10/9/4 49/10/4
f 49/10/5 10/9/5 12/11/5 51/12/5
f 51/12/6 12/11/6 14/13/6 53/14/6
f 53/14/7 14/13/7 16/15/7 55/16/7
f 55/16/8 16/15/8 18/17/8 57/18/8
f 4/19/9 2/20/9 20/21/9 18/22/9 16/23/9 14/24/9 12/25/9 10/26/9 8/27/9 6/28/9
f 57/18/10 18/17/10 20/29/10 59/30/10
f 59/30/11 20/29/11 2/31/11 42/32/11
f 1/33/12 3/34/12 5/35/12 7/36/12 9/37/12 11/38/12 13/39/12 15/40/12 17/41/12 19/42/12
f 19/43/11 40/44/11 21/45/11 1/46/11
f 40/44/11 39/47/11 22/48/11 21/45/11
f 17/49/10 38/50/10 40/44/10 19/43/10
f 38/50/10 37/51/10 39/47/10 40/44/10
f 15/52/8 36/53/8 38/50/8 17/49/8
f 35/54/13 37/51/13 83/55/13 81/56/13
f 13/57/7 34/58/7 36/53/7 15/52/7
f 34/58/7 33/59/7 35/54/7 36/53/7
f 11/60/6 32/61/6 34/58/6 13/57/6
f 32/61/6 31/62/6 33/59/6 34/58/6
f 9/63/5 30/64/5 32/61/5 11/60/5
f 30/64/5 29/65/5 31/62/5 32/61/5
f 7/66/4 28/67/4 30/64/4 9/63/4
f 28/67/4 27/68/4 29/65/4 30/64/4
f 5/69/3 26/70/3 28/67/3 7/66/3
f 26/70/3 25/71/3 27/68/3 28/67/3
f 3/72/2 24/73/2 26/70/2 5/69/2
f 24/73/2 23/74/2 25/71/2 26/70/2
f 1/75/1 21/76/1 24/73/1 3/72/1
f 21/76/1 22/77/1 23/74/1 24/73/1
f 69/78/11 60/79/11 41/80/11 70/81/11
f 42/1/14 41/82/14 89/83/14 90/84/14
f 68/85/10 58/86/10 60/79/10 69/78/10
f 58/86/10 57/18/10 59/30/10 60/79/10
f 67/87/8 56/88/8 58/86/8 68/85/8
f 56/88/8 55/16/8 57/18/8 58/86/8
f 66/89/7 54/90/7 56/88/7 67/87/7
f 54/90/7 53/14/7 55/16/7 56/88/7
f 65/91/6 52/92/6 54/90/6 66/89/6
f 52/92/6 51/12/6 53/14/6 54/90/6
f 64/93/5 50/94/5 52/92/5 65/91/5
f 50/94/5 49/10/5 51/12/5 52/92/5
f 63/95/4 48/96/4 50/94/4 64/93/4
f 48/96/4 47/8/4 49/10/4 50/94/4
f 62/97/3 46/98/3 48/96/3 63/95/3
f 46/98/3 45/6/3 47/8/3 48/96/3
f 61/99/2 44/100/2 46/98/2 62/97/2
f 44/100/2 43/4/2 45/6/2 46/98/2
f 70/101/1 41/82/1 44/100/1 61/99/1
f 41/82/1 42/1/1 43/4/1 44/100/1
f 80/102/1 70/101/1 61/99/1 71/103/1
f 71/103/2 61/99/2 62/97/2 72/104/2
f 72/104/3 62/97/3 63/95/3 73/105/3
f 73/105/15 63/95/15 85/106/15 87/107/15
f 74/108/5 64/93/5 65/91/5 75/109/5
f 75/109/6 65/91/6 66/89/6 76/110/6
f 76/110/7 66/89/7 67/87/7 77/111/7
f 77/111/8 67/87/8 68/85/8 78/112/8
f 78/112/10 68/85/10 69/78/10 79/113/10
f 79/113/11 69/78/11 70/81/11 80/114/11
f 39/47/11 79/113/11 80/114/11 22/48/11
f 37/51/10 78/112/10 79/113/10 39/47/10
f 35/54/8 77/111/8 78/112/8 37/51/8
f 33/59/7 76/110/7 77/111/7 35/54/7
f 31/62/6 75/109/6 76/110/6 33/59/6
f 29/65/5 74/108/5 75/109/5 31/62/5
f 27/68/4 73/105/4 74/108/4 29/65/4
f 25/71/3 72/104/3 73/105/3 27/68/3
f 23/74/2 71/103/2 72/104/2 25/71/2
f 22/77/1 80/102/1 71/103/1 23/74/1
f 82/115/8 81/56/8 83/55/8 84/116/8
f 37/51/16 38/50/16 84/116/16 83/55/16
f 36/53/17 35/54/17 81/56/17 82/115/17
f 38/50/18 36/53/18 82/115/18 84/116/18
f 87/107/4 85/106/4 86/117/4 88/118/4
f 74/108/19 73/105/19 87/107/19 88/118/19
f 64/93/20 74/108/20 88/118/20 86/117/20
f 63/95/21 64/93/21 86/117/21 85/106/21
f 92/119/11 91/120/11 90/121/11 89/122/11
f 59/30/22 42/32/22 90/121/22 91/120/22
f 60/79/23 59/30/23 91/120/23 92/119/23
f 41/80/24 60/79/24 92/119/24 89/122/24
