# Blender v2.81 (sub 16) OBJ File: 'launchpad.blend'
# www.blender.org
mtllib launchpad.mtl
o Cylinder
v 0.000000 0.000000 -6.624655
v 0.000000 0.309437 -5.988565
v 5.737120 0.000000 -3.312327
v 5.186250 0.309437 -2.994282
v 5.737119 0.000000 3.312328
v 5.186249 0.309437 2.994283
v -0.000001 0.000000 6.624655
v -0.000001 0.309437 5.988565
v -5.737120 0.000000 3.312327
v -5.186250 0.309437 2.994282
v -5.737120 0.000000 -3.312327
v -5.186250 0.309437 -2.994282
v 5.658745 0.309437 -3.267078
v 0.000000 0.309437 -6.534156
v 5.658745 0.309437 3.267078
v -0.000001 0.309437 6.534156
v -5.658745 0.309437 3.267077
v -5.658745 0.309437 -3.267077
v 5.107875 0.396830 -2.949033
v 0.000000 0.396830 -5.898067
v 5.107875 0.396830 2.949033
v -0.000001 0.396830 5.898066
v -5.107875 0.396830 2.949033
v -5.107875 0.396830 -2.949033
v 5.737120 0.309437 -3.312327
v 0.000000 0.309437 -6.624655
v 5.737119 0.309437 3.312328
v -0.000001 0.309437 6.624655
v -5.737120 0.309437 3.312327
v -5.737120 0.309437 -3.312327
v 5.107875 0.309437 -2.949033
v 0.000000 0.309437 -5.898067
v 5.107875 0.309437 2.949033
v -0.000001 0.309437 5.898066
v -5.107875 0.309437 2.949033
v -5.107875 0.309437 -2.949033
v 0.000000 0.376440 -6.534156
v 0.000000 0.376440 -5.988565
v 5.186250 0.376440 -2.994282
v 5.658745 0.376440 -3.267078
v 5.186249 0.376440 2.994283
v 5.658745 0.376440 3.267078
v -0.000001 0.376440 5.988565
v -0.000001 0.376440 6.534156
v -5.186250 0.376440 2.994282
v -5.658745 0.376440 3.267077
v -5.186250 0.376440 -2.994282
v -5.658745 0.376440 -3.267077
vt 0.077465 0.256358
vt 0.499466 0.012715
vt 0.499466 0.987285
vt 0.077465 0.743642
vt 0.921467 0.743642
vt 0.921467 0.256358
vt 0.644546 0.549249
vt 0.623468 0.549249
vt 0.623468 0.416373
vt 0.644546 0.416373
vt 0.623468 0.150621
vt 0.644546 0.150621
vt 0.623468 0.017745
vt 0.644546 0.017745
vt 0.691015 0.551202
vt 0.669937 0.551202
vt 0.669937 0.418326
vt 0.691015 0.418326
vt 0.776953 0.167297
vt 0.776953 0.048995
vt 0.782906 0.048995
vt 0.782906 0.167297
vt 0.669937 0.152574
vt 0.691015 0.152574
vt 0.669937 0.019698
vt 0.691015 0.019698
vt 0.062827 0.681894
vt 0.415901 0.870698
vt 0.239364 0.965100
vt 0.062827 0.870698
vt 0.823285 0.428505
vt 0.823285 0.559566
vt 0.818720 0.559566
vt 0.818720 0.428505
vt 0.966521 0.494308
vt 0.966521 0.614426
vt 0.961957 0.614426
vt 0.961957 0.494308
vt 0.966521 0.013839
vt 0.966521 0.133956
vt 0.961957 0.133956
vt 0.961957 0.013839
vt 0.601564 0.018800
vt 0.601564 0.144408
vt 0.597190 0.144408
vt 0.597190 0.018800
vt 0.823285 0.035323
vt 0.823285 0.166384
vt 0.818720 0.166384
vt 0.818720 0.035323
vt 0.966521 0.854660
vt 0.966521 0.974778
vt 0.961957 0.974778
vt 0.961957 0.854660
vt 0.730172 0.061266
vt 0.730172 0.179568
vt 0.724218 0.179568
vt 0.724218 0.061266
vt 0.730172 0.416173
vt 0.730172 0.534475
vt 0.724218 0.534475
vt 0.724218 0.416173
vt 0.776953 0.403901
vt 0.782906 0.403901
vt 0.776953 0.522204
vt 0.782906 0.522204
vt 0.416460 0.192395
vt 0.242334 0.099283
vt 0.242334 0.096703
vt 0.418872 0.191105
vt 0.068209 0.192395
vt 0.065797 0.191105
vt 0.068209 0.378620
vt 0.065797 0.379909
vt 0.242334 0.471732
vt 0.242334 0.474311
vt 0.416460 0.378620
vt 0.418872 0.379909
vt 0.405900 0.202210
vt 0.405900 0.372885
vt 0.403488 0.371596
vt 0.403488 0.203500
vt 0.246313 0.116872
vt 0.246313 0.119452
vt 0.086727 0.202210
vt 0.089139 0.203500
vt 0.086727 0.372885
vt 0.089139 0.371596
vt 0.246314 0.458223
vt 0.246314 0.455644
vt 0.801186 0.691754
vt 0.641600 0.606416
vt 0.641600 0.590867
vt 0.815725 0.683979
vt 0.482013 0.691754
vt 0.467474 0.683979
vt 0.482013 0.862429
vt 0.467474 0.870204
vt 0.641600 0.947767
vt 0.641600 0.963316
vt 0.801186 0.862429
vt 0.815725 0.870204
vt 0.966521 0.374191
vt 0.961957 0.374191
vt 0.601564 0.395623
vt 0.601564 0.521231
vt 0.597190 0.521231
vt 0.597190 0.395623
vt 0.239364 0.587492
vt 0.415901 0.681894
vn 0.0000 1.0000 0.0000
vn 0.5000 0.0000 -0.8660
vn 1.0000 0.0000 0.0000
vn 0.5000 0.0000 0.8660
vn -0.5000 0.0000 0.8660
vn -1.0000 0.0000 0.0000
vn -0.5000 0.0000 -0.8660
vn 0.0000 -1.0000 0.0000
usemtl launch_area
s off
f 23/1/1 22/2/1 20/3/1 24/4/1
f 19/5/1 20/3/1 22/2/1 21/6/1
usemtl pad
f 1/7/2 26/8/2 25/9/2 3/10/2
f 3/10/3 25/9/3 27/11/3 5/12/3
f 5/12/4 27/11/4 28/13/4 7/14/4
f 7/15/5 28/16/5 29/17/5 9/18/5
f 31/19/2 32/20/2 20/21/2 19/22/2
f 9/18/6 29/17/6 30/23/6 11/24/6
f 11/24/7 30/23/7 26/25/7 1/26/7
f 1/27/8 7/28/8 9/29/8 11/30/8
f 17/31/5 16/32/5 44/33/5 46/34/5
f 2/35/5 4/36/5 39/37/5 38/38/5
f 8/39/2 10/40/2 45/41/2 43/42/2
f 16/43/4 15/44/4 42/45/4 44/46/4
f 14/47/7 18/48/7 48/49/7 37/50/7
f 6/51/7 8/52/7 43/53/7 41/54/7
f 32/55/7 36/56/7 24/57/7 20/58/7
f 35/59/5 34/60/5 22/61/5 23/62/5
f 33/63/3 31/19/3 19/22/3 21/64/3
f 36/56/6 35/59/6 23/62/6 24/57/6
f 34/65/4 33/63/4 21/64/4 22/66/4
f 14/67/1 13/68/1 25/69/1 26/70/1
f 13/68/1 15/71/1 27/72/1 25/69/1
f 15/71/1 16/73/1 28/74/1 27/72/1
f 16/73/1 17/75/1 29/76/1 28/74/1
f 17/75/1 18/77/1 30/78/1 29/76/1
f 18/77/1 14/67/1 26/70/1 30/78/1
f 4/79/1 2/80/1 32/81/1 31/82/1
f 6/83/1 4/79/1 31/82/1 33/84/1
f 8/85/1 6/83/1 33/84/1 34/86/1
f 10/87/1 8/85/1 34/86/1 35/88/1
f 12/89/1 10/87/1 35/88/1 36/90/1
f 2/80/1 12/89/1 36/90/1 32/81/1
f 38/91/1 39/92/1 40/93/1 37/94/1
f 39/92/1 41/95/1 42/96/1 40/93/1
f 41/95/1 43/97/1 44/98/1 42/96/1
f 43/97/1 45/99/1 46/100/1 44/98/1
f 45/99/1 47/101/1 48/102/1 46/100/1
f 47/101/1 38/91/1 37/94/1 48/102/1
f 10/40/3 12/103/3 47/104/3 45/41/3
f 13/105/2 14/106/2 37/107/2 40/108/2
f 4/36/6 6/51/6 41/54/6 39/37/6
f 18/48/6 17/31/6 46/34/6 48/49/6
f 12/103/4 2/35/4 38/38/4 47/104/4
f 15/44/3 13/105/3 40/108/3 42/45/3
f 7/28/8 1/27/8 3/109/8 5/110/8
