# Blender v2.81 (sub 16) OBJ File: 'squitchyblend.blend'
# www.blender.org
mtllib squitchy_1.mtl
o Plane
v -0.858966 -0.114786 0.858966
v 0.858966 -0.114786 0.858966
v -0.858966 -0.114786 -0.858966
v 0.858966 -0.114786 -0.858966
v -0.771509 0.126843 0.771509
v 0.771509 0.126843 0.771509
v -0.771509 0.126843 -0.771509
v 0.771509 0.126843 -0.771509
v -0.168041 0.193893 0.168041
v 0.168041 0.193893 0.168041
v -0.168041 0.193893 -0.168041
v 0.168041 0.193893 -0.168041
v -0.675722 0.193893 -0.675722
v -0.675722 0.193893 0.675722
v 0.675722 0.193893 0.675722
v 0.675722 0.193893 -0.675722
v -0.126005 0.330271 -0.126005
v -0.126005 0.330271 0.126005
v 0.126005 0.330271 0.126005
v 0.126005 0.330271 -0.126005
v -0.168041 0.330271 -0.168041
v -0.168041 0.330271 0.168041
v 0.168041 0.330271 0.168041
v 0.168041 0.330271 -0.168041
v -0.126005 1.899148 -0.126005
v -0.126005 1.899148 0.126005
v 0.126005 1.899148 0.126005
v 0.126005 1.899148 -0.126005
v -0.858966 0.050386 -0.858966
v -0.858966 0.050386 0.858966
v 0.858966 0.050386 0.858966
v 0.858966 0.050386 -0.858966
v -0.858966 0.050386 0.000000
v 0.000000 0.050386 0.858966
v 0.858966 0.050386 0.000000
v 0.000000 0.050386 -0.858966
v 0.000000 -0.474404 0.000000
v 0.103563 0.050386 -0.103563
v 0.103563 0.050386 -0.755403
v 0.755403 0.050386 -0.755403
v 0.755403 0.050386 -0.103563
v 0.103563 0.050386 0.755403
v 0.103563 0.050386 0.103563
v 0.755403 0.050386 0.103563
v 0.755403 0.050386 0.755403
v -0.755403 0.050386 0.755403
v -0.755403 0.050386 0.103563
v -0.103563 0.050386 0.103563
v -0.103563 0.050386 0.755403
v -0.755403 0.050386 -0.103563
v -0.755403 0.050386 -0.755403
v -0.103563 0.050386 -0.755403
v -0.103563 0.050386 -0.103563
v 0.429483 -0.470443 -0.429483
v 0.429483 -0.470443 0.429483
v -0.429483 -0.470443 0.429483
v -0.429483 -0.470443 -0.429483
v -0.902584 0.126843 -0.902584
v -0.902584 0.126843 0.902584
v 0.902584 0.126843 0.902584
v 0.902584 0.126843 -0.902584
v -0.902584 -0.114786 -0.902584
v -0.902584 -0.114786 0.902584
v 0.902584 -0.114786 0.902584
v 0.902584 -0.114786 -0.902584
v -0.895285 0.126843 -0.920204
v -0.862232 0.060739 -1.000000
v -1.000000 0.060739 -0.862232
v -0.920204 0.126843 -0.895285
v -0.920204 0.126843 0.895285
v -1.000000 0.060739 0.862232
v -0.862232 0.060739 1.000000
v -0.895285 0.126843 0.920204
v 0.895285 0.126843 0.920204
v 0.862232 0.060739 1.000000
v 1.000000 0.060739 0.862232
v 0.920204 0.126843 0.895285
v 0.920204 0.126843 -0.895285
v 1.000000 0.060739 -0.862232
v 0.862232 0.060739 -1.000000
v 0.895285 0.126843 -0.920204
v -0.968278 -0.114786 -0.875372
v -1.000000 -0.088507 -0.862232
v -0.862232 -0.088507 -1.000000
v -0.875372 -0.114786 -0.968278
v -0.875372 -0.114786 0.968278
v -0.862232 -0.088507 1.000000
v -1.000000 -0.088507 0.862232
v -0.968278 -0.114786 0.875372
v 0.968278 -0.114786 0.875372
v 1.000000 -0.088507 0.862232
v 0.862232 -0.088507 1.000000
v 0.875372 -0.114786 0.968278
v 0.875372 -0.114786 -0.968278
v 0.862232 -0.088507 -1.000000
v 1.000000 -0.088507 -0.862232
v 0.968278 -0.114786 -0.875372
vt 0.929483 0.929483
vt 0.929483 0.070517
vt 0.929483 0.070517
vt 0.929483 0.500000
vt 0.929483 0.929483
vt 0.885754 0.114246
vt 0.885754 0.885754
vt 0.885754 0.885754
vt 0.885754 0.114246
vt 0.114246 0.114246
vt 0.114246 0.885754
vt 0.048708 0.951292
vt 0.039898 0.947642
vt 0.039898 0.052358
vt 0.048708 0.048708
vt 0.039898 0.039898
vt 1.000000 0.068884
vt 1.000000 0.068884
vt 0.931116 0.000000
vt 0.931116 0.000000
vt 0.070517 0.929483
vt 0.048708 0.951292
vt 0.062314 0.984139
vt 0.937686 0.984139
vt 0.951292 0.951292
vt 0.951292 0.951292
vt 0.947642 0.960102
vt 0.052358 0.960102
vt 0.947642 0.039898
vt 0.960102 0.039898
vt 0.951292 0.048708
vt 0.960102 0.947642
vt 0.960102 0.960102
vt 0.068884 0.000000
vt 0.068884 0.000000
vt 0.000000 0.068884
vt 0.000000 0.068884
vt 0.595931 0.595931
vt 0.404069 0.595931
vt 0.404069 0.595931
vt 0.595931 0.595931
vt 0.114246 0.114246
vt 0.114246 0.885754
vt 0.404069 0.404069
vt 0.595931 0.404069
vt 0.428067 0.571933
vt 0.428067 0.428067
vt 0.428067 0.428067
vt 0.428067 0.571933
vt 0.595931 0.404069
vt 0.404069 0.404069
vt 0.571933 0.428067
vt 0.571933 0.571933
vt 0.571933 0.571933
vt 0.571933 0.428067
vt 0.931116 1.000000
vt 0.068884 1.000000
vt 0.068884 1.000000
vt 0.931116 1.000000
vt 0.984139 0.984139
vt 0.984139 0.062314
vt 0.984139 0.015861
vt 0.951292 0.048708
vt 0.551782 0.122299
vt 0.551782 0.448218
vt 0.551782 0.122299
vt 0.070517 0.070517
vt 0.070517 0.929483
vt 0.070517 0.500000
vt 0.070517 0.070517
vt 0.500000 0.929483
vt 0.500000 0.070517
vt 0.551782 0.551782
vt 0.551782 0.877701
vt 0.551782 0.551782
vt 0.448218 0.877701
vt 0.448218 0.551782
vt 0.448218 0.877701
vt 0.448218 0.448218
vt 0.448218 0.122299
vt 0.448218 0.448218
vt 0.500000 0.500000
vt 0.877701 0.877701
vt 0.877701 0.551782
vt 0.877701 0.448218
vt 0.877701 0.122299
vt 0.122299 0.448218
vt 0.122299 0.122299
vt 0.122299 0.877701
vt 0.122299 0.551782
vt 0.877701 0.551782
vt 0.122299 0.122299
vt 0.877701 0.122299
vt 0.122299 0.551782
vt 0.551782 0.877701
vt 0.448218 0.122299
vt 0.551782 0.448218
vt 0.448218 0.551782
vt 0.877701 0.877701
vt 0.122299 0.448218
vt 0.877701 0.448218
vt 0.122299 0.877701
vt 0.048708 0.048708
vt 0.015861 0.062314
vt 0.015861 0.937686
vt 0.937686 0.015861
vt 0.062314 0.015861
vt 0.984139 0.937686
vt 0.000000 0.931116
vt 0.000000 0.931116
vt 1.000000 0.931116
vt 1.000000 0.931116
vt 0.052358 0.039898
vt 0.015861 0.015861
vt 0.960102 0.052358
vt 0.028212 0.959328
vt 0.040672 0.971788
vt 0.040672 0.028212
vt 0.028212 0.040672
vt 0.971788 0.040672
vt 0.959328 0.028212
vt 0.959328 0.971788
vt 0.971788 0.959328
vt 0.039898 0.960102
vt 0.057669 0.988785
vt 0.011215 0.942331
vt 0.011215 0.057669
vt 0.057669 0.011215
vt 0.942331 0.011215
vt 0.988785 0.057669
vt 0.988785 0.942331
vt 0.942331 0.988785
vt 0.015861 0.984139
vn -1.0000 0.0000 0.0000
vn 0.5735 0.8192 0.0000
vn 0.0000 1.0000 0.0000
vn 0.7071 0.0000 0.7071
vn 0.0000 -1.0000 0.0000
vn -0.7071 0.0000 0.7071
vn 0.0000 0.0000 -1.0000
vn -0.5735 0.8192 0.0000
vn 0.0000 0.8192 -0.5735
vn 0.0000 0.8192 0.5735
vn 0.0000 0.0000 1.0000
vn 1.0000 0.0000 0.0000
vn -0.8477 -0.5305 0.0000
vn 0.8477 -0.5305 0.0000
vn 0.9227 -0.3642 -0.1265
vn 0.1265 -0.3642 -0.9227
vn 0.9227 -0.3642 0.1265
vn 0.1265 -0.3642 0.9227
vn -0.1265 -0.3642 0.9227
vn -0.9227 -0.3642 0.1265
vn -0.9227 -0.3642 -0.1265
vn -0.1265 -0.3642 -0.9227
vn 0.0000 -0.5305 0.8477
vn 0.0000 -0.5305 -0.8477
vn 0.7071 0.0000 -0.7071
vn -0.7071 0.0000 -0.7071
vn -0.6325 0.4472 -0.6325
vn -0.6325 0.4472 0.6325
vn 0.6325 0.4472 0.6325
vn 0.6325 0.4472 -0.6325
vn -0.6380 0.7701 0.0000
vn 0.0000 0.7701 -0.6380
vn 0.0000 0.7701 0.6380
vn 0.6380 0.7701 0.0000
vn -0.6325 -0.4472 -0.6325
vn -0.6325 -0.4472 0.6325
vn 0.6325 -0.4472 0.6325
vn 0.6325 -0.4472 -0.6325
vn 0.0000 -0.7701 -0.6380
vn -0.6380 -0.7701 0.0000
vn 0.0000 -0.7701 0.6380
vn 0.6380 -0.7701 0.0000
usemtl None
s off
f 4/1/1 2/2/1 31/3/1 35/4/1 32/5/1
f 6/6/2 8/7/2 16/8/2 15/9/2
f 5/10/3 7/11/3 58/12/3 69/13/3 70/14/3 59/15/3
f 70/14/3 73/16/3 59/15/3
f 91/17/4 76/18/4 75/19/4 92/20/4
f 4/1/5 3/21/5 62/22/5 85/23/5 94/24/5 65/25/5
f 7/11/3 8/7/3 61/26/3 81/27/3 66/28/3 58/12/3
f 74/29/3 77/30/3 60/31/3
f 78/32/3 81/33/3 61/26/3
f 87/34/6 72/35/6 71/36/6 88/37/6
f 12/38/7 11/39/7 21/40/7 24/41/7
f 7/11/8 5/10/8 14/42/8 13/43/8
f 8/7/9 7/11/9 13/43/9 16/8/9
f 5/10/10 6/6/10 15/9/10 14/42/10
f 9/44/3 11/39/3 13/43/3 14/42/3
f 10/45/3 9/44/3 14/42/3 15/9/3
f 12/38/3 10/45/3 15/9/3 16/8/3
f 11/39/3 12/38/3 16/8/3 13/43/3
f 17/46/1 18/47/1 26/48/1 25/49/1
f 9/44/11 10/45/11 23/50/11 22/51/11
f 10/45/12 12/38/12 24/41/12 23/50/12
f 11/39/1 9/44/1 22/51/1 21/40/1
f 18/47/3 17/46/3 21/40/3 22/51/3
f 19/52/3 18/47/3 22/51/3 23/50/3
f 20/53/3 19/52/3 23/50/3 24/41/3
f 17/46/3 20/53/3 24/41/3 21/40/3
f 20/53/7 17/46/7 25/49/7 28/54/7
f 18/47/11 19/52/11 27/55/11 26/48/11
f 19/52/12 20/53/12 28/54/12 27/55/12
f 95/56/7 84/57/7 67/58/7 80/59/7
f 94/24/5 97/60/5 65/25/5
f 90/61/5 93/62/5 64/63/5
f 42/64/13 43/65/13 55/66/13
f 1/67/12 3/21/12 29/68/12 33/69/12 30/70/12
f 3/21/11 4/1/11 32/5/11 36/71/11 29/68/11
f 2/2/7 1/67/7 30/70/7 34/72/7 31/3/7
f 38/73/13 39/74/13 54/75/13
f 52/76/14 53/77/14 57/78/14
f 48/79/14 49/80/14 56/81/14
f 37/82/15 36/71/15 39/74/15 38/73/15
f 36/71/5 32/5/5 40/83/5 39/74/5
f 32/5/5 35/4/5 41/84/5 40/83/5
f 35/4/16 37/82/16 38/73/16 41/84/16
f 34/72/17 37/82/17 43/65/17 42/64/17
f 37/82/18 35/4/18 44/85/18 43/65/18
f 35/4/5 31/3/5 45/86/5 44/85/5
f 31/3/5 34/72/5 42/64/5 45/86/5
f 30/70/5 33/69/5 47/87/5 46/88/5
f 33/69/19 37/82/19 48/79/19 47/87/19
f 37/82/20 34/72/20 49/80/20 48/79/20
f 34/72/5 30/70/5 46/88/5 49/80/5
f 33/69/5 29/68/5 51/89/5 50/90/5
f 29/68/5 36/71/5 52/76/5 51/89/5
f 36/71/21 37/82/21 53/77/21 52/76/21
f 37/82/22 33/69/22 50/90/22 53/77/22
f 41/84/23 38/73/23 54/91/23
f 46/88/13 47/87/13 56/92/13
f 45/86/23 42/64/23 55/93/23
f 50/90/13 51/89/13 57/94/13
f 39/74/24 40/83/24 54/95/24
f 49/80/23 46/88/23 56/96/23
f 43/65/24 44/85/24 55/97/24
f 53/77/23 50/90/23 57/98/23
f 40/83/14 41/84/14 54/99/14
f 47/87/24 48/79/24 56/100/24
f 44/85/14 45/86/14 55/101/14
f 51/89/24 52/76/24 57/102/24
f 3/21/5 1/67/5 63/103/5 89/104/5 82/105/5 62/22/5
f 1/67/5 2/2/5 64/63/5 93/106/5 86/107/5 63/103/5
f 2/2/5 4/1/5 65/25/5 97/108/5 90/61/5 64/63/5
f 83/109/1 88/37/1 71/36/1 68/110/1
f 87/34/11 92/20/11 75/19/11 72/35/11
f 91/17/12 96/111/12 79/112/12 76/18/12
f 79/112/25 96/111/25 95/56/25 80/59/25
f 6/6/3 5/10/3 59/15/3 73/113/3 74/29/3 60/31/3
f 86/107/5 89/114/5 63/103/5
f 8/7/3 6/6/3 60/31/3 77/115/3 78/32/3 61/26/3
f 67/58/26 84/57/26 83/109/26 68/110/26
f 67/58/27 68/110/27 69/116/27 66/117/27
f 71/36/28 72/35/28 73/118/28 70/119/28
f 75/19/29 76/18/29 77/120/29 74/121/29
f 79/112/30 80/59/30 81/122/30 78/123/30
f 68/110/31 71/36/31 70/14/31 69/13/31
f 66/28/32 81/27/32 80/59/32 67/58/32
f 72/35/33 75/19/33 74/29/33 73/113/33
f 76/18/34 79/112/34 78/32/34 77/115/34
f 66/28/3 69/124/3 58/12/3
f 83/109/35 84/57/35 85/125/35 82/126/35
f 87/34/36 88/37/36 89/127/36 86/128/36
f 91/17/37 92/20/37 93/129/37 90/130/37
f 95/56/38 96/111/38 97/131/38 94/132/38
f 94/24/39 85/23/39 84/57/39 95/56/39
f 82/105/40 89/104/40 88/37/40 83/109/40
f 86/107/41 93/106/41 92/20/41 87/34/41
f 90/61/42 97/108/42 96/111/42 91/17/42
f 82/105/5 85/133/5 62/22/5
l 38 43
l 38 53
l 48 53
l 43 48
